<svg width="74" height="85" viewBox="0 0 74 85" fill="none" xmlns="http://www.w3.org/2000/svg">
<path d="M0 76.611V32.2245H73.107V76.611C73.107 81.017 69.517 84.4439 65.2741 84.4439H7.8329C3.42689 84.4439 0 81.017 0 76.611ZM52.2193 44.6266V51.154C52.2193 52.2963 53.0352 53.1123 54.1775 53.1123H60.705C61.6841 53.1123 62.6632 52.2963 62.6632 51.154V44.6266C62.6632 43.6475 61.6841 42.6684 60.705 42.6684H54.1775C53.0352 42.6684 52.2193 43.6475 52.2193 44.6266ZM52.2193 65.5144V72.0418C52.2193 73.1841 53.0352 74 54.1775 74H60.705C61.6841 74 62.6632 73.1841 62.6632 72.0418V65.5144C62.6632 64.5352 61.6841 63.5561 60.705 63.5561H54.1775C53.0352 63.5561 52.2193 64.5352 52.2193 65.5144ZM31.3316 44.6266V51.154C31.3316 52.2963 32.1475 53.1123 33.2898 53.1123H39.8172C40.7963 53.1123 41.7755 52.2963 41.7755 51.154V44.6266C41.7755 43.6475 40.7963 42.6684 39.8172 42.6684H33.2898C32.1475 42.6684 31.3316 43.6475 31.3316 44.6266ZM31.3316 65.5144V72.0418C31.3316 73.1841 32.1475 74 33.2898 74H39.8172C40.7963 74 41.7755 73.1841 41.7755 72.0418V65.5144C41.7755 64.5352 40.7963 63.5561 39.8172 63.5561H33.2898C32.1475 63.5561 31.3316 64.5352 31.3316 65.5144ZM10.4439 44.6266V51.154C10.4439 52.2963 11.2598 53.1123 12.4021 53.1123H18.9295C19.9086 53.1123 20.8877 52.2963 20.8877 51.154V44.6266C20.8877 43.6475 19.9086 42.6684 18.9295 42.6684H12.4021C11.2598 42.6684 10.4439 43.6475 10.4439 44.6266ZM10.4439 65.5144V72.0418C10.4439 73.1841 11.2598 74 12.4021 74H18.9295C19.9086 74 20.8877 73.1841 20.8877 72.0418V65.5144C20.8877 64.5352 19.9086 63.5561 18.9295 63.5561H12.4021C11.2598 63.5561 10.4439 64.5352 10.4439 65.5144ZM65.2741 11.3368C69.517 11.3368 73.107 14.9269 73.107 19.1697V27.0026H0V19.1697C0 14.9269 3.42689 11.3368 7.8329 11.3368H15.6658V3.50392C15.6658 2.19844 16.8081 0.892953 18.2768 0.892953H23.4987C24.8042 0.892953 26.1097 2.19844 26.1097 3.50392V11.3368H46.9974V3.50392C46.9974 2.19844 48.1397 0.892953 49.6084 0.892953H54.8303C56.1358 0.892953 57.4413 2.19844 57.4413 3.50392V11.3368H65.2741Z" fill="white"/>
</svg>
