<svg width="75" height="33" viewBox="0 0 75 33" fill="none" xmlns="http://www.w3.org/2000/svg">
<path fill-rule="evenodd" clip-rule="evenodd" d="M12.3112 8.15864L6.4206 2.92499C6.0597 2.58215 5.63353 2.31541 5.16744 2.14063C4.70136 1.96585 4.20487 1.8866 3.70754 1.9076C3.2102 1.92861 2.72217 2.04943 2.27247 2.26289C1.82278 2.47634 1.42062 2.77807 1.08991 3.15012C0.759205 3.52216 0.50671 3.95692 0.347449 4.42854C0.188187 4.90016 0.125414 5.39899 0.162863 5.89536C0.200313 6.39173 0.337221 6.8755 0.56544 7.31788C0.79366 7.76026 1.10853 8.15222 1.49131 8.47043L6.70641 13.1102L6.95881 12.8801C8.82585 11.2246 10.6038 9.63965 12.3112 8.15864ZM20.8299 25.3889C22.176 26.4678 23.4628 27.4291 24.6901 28.2729C28.8362 31.1051 32.8004 32.831 37.3623 32.831C41.9241 32.831 45.8883 31.1051 50.0307 28.2729C54.0431 25.5299 58.5901 21.4878 64.2952 16.4174L64.4882 16.2467L73.2332 8.47043C73.9315 7.80707 74.3446 6.89824 74.3853 5.93593C74.4259 4.97362 74.0909 4.0332 73.451 3.31332C72.8111 2.59344 71.9164 2.15048 70.956 2.07802C69.9956 2.00556 69.0446 2.30927 68.3039 2.92499L59.5552 10.6975C53.6163 15.9794 49.4182 19.7024 45.8437 22.1447C42.3546 24.5277 39.8566 25.4111 37.3623 25.4111C34.8679 25.4111 32.3699 24.5277 28.8808 22.1447C28.1285 21.6251 27.3416 21.0498 26.5201 20.4188C24.8646 21.8218 22.9975 23.4624 20.8299 25.3889Z" fill="white"/>
<path fill-rule="evenodd" clip-rule="evenodd" d="M53.9052 8.27695C52.5566 7.19805 51.2673 6.23669 50.0375 5.39287C45.8951 2.56076 41.9346 0.831055 37.3691 0.831055C32.8036 0.831055 28.843 2.56076 24.7007 5.39287C20.6882 8.13219 16.1412 12.1781 10.4362 17.2447L10.2432 17.4191L1.49814 25.1917C1.12331 25.5123 0.816156 25.9045 0.594623 26.3452C0.373089 26.7859 0.241621 27.2664 0.207902 27.7585C0.174182 28.2506 0.238888 28.7445 0.398237 29.2113C0.557586 29.6781 0.808382 30.1085 1.13597 30.4773C1.46356 30.8461 1.86136 31.1459 2.30614 31.3591C2.75091 31.5724 3.23374 31.6949 3.72639 31.7194C4.21905 31.744 4.71166 31.6701 5.17542 31.502C5.63919 31.334 6.06481 31.0752 6.42742 30.7408L15.1762 22.9683C21.1151 17.6864 25.3131 13.9634 28.8876 11.5211C32.3767 9.13809 34.8747 8.25468 37.3691 8.25468C39.8634 8.25468 42.3615 9.13809 45.8506 11.5211C46.6028 12.0407 47.3897 12.6148 48.2113 13.2434C49.8667 11.844 51.7338 10.1997 53.9052 8.27695ZM68.0249 20.5556L67.7725 20.782C65.9092 22.4449 64.1251 24.02 62.4201 25.5072L68.3107 30.7408C69.0497 31.373 70.0072 31.6899 70.9774 31.6234C71.9475 31.5569 72.8529 31.1124 73.4987 30.3853C74.1445 29.6583 74.4792 28.7069 74.4308 27.7356C74.3825 26.7644 73.9549 25.8509 73.24 25.1917L68.0249 20.5556Z" fill="white"/>
</svg>
