<svg width="75" height="32" viewBox="0 0 75 32" fill="none" xmlns="http://www.w3.org/2000/svg">
<path fill-rule="evenodd" clip-rule="evenodd" d="M12.3112 7.15864L6.4206 1.92499C6.0597 1.58215 5.63353 1.31541 5.16744 1.14063C4.70136 0.965846 4.20487 0.886599 3.70754 0.907603C3.2102 0.928607 2.72217 1.04943 2.27247 1.26289C1.82278 1.47634 1.42062 1.77807 1.08991 2.15012C0.759205 2.52216 0.50671 2.95692 0.347449 3.42854C0.188187 3.90016 0.125414 4.39899 0.162863 4.89536C0.200313 5.39173 0.337221 5.8755 0.56544 6.31788C0.79366 6.76026 1.10853 7.15222 1.49131 7.47043L6.70641 12.1102L6.95881 11.8801C8.82585 10.2246 10.6038 8.63965 12.3112 7.15864ZM20.8299 24.3889C22.176 25.4678 23.4628 26.4291 24.6901 27.2729C28.8362 30.1051 32.8004 31.831 37.3623 31.831C41.9241 31.831 45.8883 30.1051 50.0307 27.2729C54.0431 24.5299 58.5901 20.4878 64.2952 15.4174L64.4882 15.2467L73.2332 7.47043C73.9315 6.80707 74.3446 5.89824 74.3853 4.93593C74.4259 3.97362 74.0909 3.0332 73.451 2.31332C72.8111 1.59344 71.9164 1.15048 70.956 1.07802C69.9956 1.00556 69.0446 1.30927 68.3039 1.92499L59.5552 9.69752C53.6163 14.9794 49.4182 18.7024 45.8437 21.1447C42.3546 23.5277 39.8566 24.4111 37.3623 24.4111C34.8679 24.4111 32.3699 23.5277 28.8808 21.1447C28.1285 20.6251 27.3416 20.0498 26.5201 19.4188C24.8646 20.8218 22.9975 22.4624 20.8299 24.3889Z" fill="white"/>
</svg>
