<svg width="39" height="54" viewBox="0 0 39 54" fill="none" xmlns="http://www.w3.org/2000/svg">
<path d="M14.1016 32H7.49711V10.7663H14.1016V32ZM10.7638 7.92573C8.70437 7.92573 7 6.15034 7 4.01987C7 1.96042 8.70437 0.256045 10.7638 0.256045C12.8943 0.256045 14.5987 1.96042 14.5987 4.01987C14.5987 6.15034 12.8943 7.92573 10.7638 7.92573ZM38.744 32H32.2105V21.7027C32.2105 19.2172 32.1395 16.0925 28.7308 16.0925C25.322 16.0925 24.8249 18.7201 24.8249 21.4897V32H18.2205V10.7663H24.5408V13.678H24.6119C25.5351 12.0446 27.6655 10.2692 30.8612 10.2692C37.5367 10.2692 38.815 14.6722 38.815 20.3534V32H38.744Z" fill="#515151"/>
</svg>
