<svg width="97" height="97" viewBox="0 0 97 97" fill="none" xmlns="http://www.w3.org/2000/svg">
<path d="M94.6875 83.0625C96.375 84.9375 96.375 87.75 94.5 89.4375L89.25 94.6875C87.5625 96.5625 84.75 96.5625 82.875 94.6875L64.3125 76.125C63.375 75.1875 63 74.0625 63 72.9375V69.75C56.25 75 48 78 39 78C17.4375 78 0 60.5625 0 39C0 17.625 17.4375 0 39 0C60.375 0 78 17.625 78 39C78 48.1875 74.8125 56.4375 69.75 63H72.75C73.875 63 75 63.5625 75.9375 64.3125L94.6875 83.0625ZM39 63C52.125 63 63 52.3125 63 39C63 25.875 52.125 15 39 15C25.6875 15 15 25.875 15 39C15 52.3125 25.6875 63 39 63Z" fill="#7B3F00"/>
</svg>
