<svg width="388" height="342" viewBox="0 0 388 342" fill="none" xmlns="http://www.w3.org/2000/svg">
<path d="M327.216 192.584C334.391 176.49 342.367 160.225 348.836 144.29C354.472 130.423 356.288 132.942 342.7 130.335C327.079 127.286 310.317 125.552 294.582 122.634C277.314 119.259 260.617 115.227 243.811 111.483C243.077 111.223 242.685 110.648 242.713 109.87C243.014 102.531 243.062 95.4173 243.731 87.7204C245.808 62.7391 247.949 37.7507 250.153 12.7552C250.334 11.203 250.293 9.73879 250.031 8.38578C249.449 5.88492 248.234 5.7461 244.386 8.47221C235.88 14.5295 227.498 20.7702 219.111 26.8534L199.851 40.6047C195.033 37.7149 195.317 37.6828 199.736 31.4564C203.262 27.177 205.598 22.7991 206.484 18.8137C207.369 14.8284 206.769 11.3933 204.75 8.89368C201.885 5.8885 198.439 3.33039 194.458 1.25338C192.34 0.288256 189.519 0.0527141 186.289 0.571328C183.059 1.08996 179.538 2.34373 176.096 4.20167C167.578 8.301 159.512 14.1849 153.241 20.8732C146.97 27.5615 142.874 34.6503 141.633 40.9587C141.29 43.3907 141.644 45.5424 142.675 47.2774C144.123 49.4289 145.813 51.4132 147.737 53.2196C130.573 72.8936 114.155 92.1673 97.2638 111.494C81.5851 129.46 65.6673 147.374 49.8888 165.193C49.2433 166.123 48.2879 167.015 47.186 167.716C46.084 168.417 44.9039 168.884 43.8475 169.037C36.292 170.804 28.2545 174.293 20.6884 179.091C13.1223 183.888 6.34505 189.792 1.16065 196.103C0.614294 196.796 0.00882593 197.852 0.233386 198.182C0.869546 199.917 2.05939 201.31 3.7397 202.287C12.9858 206.339 24.1114 208.48 36.6728 208.626C41.4153 208.151 46.4373 207.131 51.6155 205.592C52.3037 205.35 53.0022 204.992 53.655 204.548C54.3078 204.104 54.8966 203.585 55.3742 203.034C59.9962 196.148 63.5341 189.293 65.8721 182.693C67.5639 177.942 67.0142 173.881 64.3295 171.298C64.1021 170.937 64.0139 170.488 64.0704 169.979C64.1268 169.471 64.3267 168.912 64.6579 168.338C68.3524 163.142 72.1861 157.851 75.9554 152.764C76.17 152.408 76.4623 152.051 76.8137 151.716C77.1651 151.381 77.568 151.076 77.9968 150.819C78.4256 150.563 78.8709 150.361 79.3044 150.226C79.738 150.091 80.1503 150.027 80.5152 150.036C86.5367 149.157 92.5582 148.278 98.8029 146.978C105.048 145.679 107.161 144.294 111.332 138.451C113.919 134.92 116.596 131.221 119.014 127.591L122.654 128.6C127.923 130.057 133.078 131.645 138.416 133.054C141.334 133.75 143.095 133.196 145.618 129.869C148.116 126.368 150.174 122.86 151.748 119.422C155.796 111.302 159.704 103.278 164.031 94.9694L166.068 95.5679C187.047 103.749 207.979 111.908 228.863 120.047C229.577 120.343 229.972 120.924 229.986 121.697C229.913 128.773 230.049 135.708 229.554 142.911C228.512 168.714 225.368 195.372 220.139 222.757C219.835 224.313 219.037 226.015 217.813 227.719C209.31 238.87 199.996 249.876 192.305 261.172C182.581 274.077 176.668 287.032 175.255 298.524C174.162 307.706 177.464 314.967 184.612 319.1C191.759 323.233 202.323 323.988 214.548 321.242C221.56 320.171 228.591 318.98 236.026 317.783L232.853 322.249C228.815 327.839 224.628 333.21 221.024 338.989C220.369 339.971 221.068 340.998 221.194 341.931C222.574 341.071 223.924 340.152 225.231 339.184C225.788 338.805 226.19 338.048 226.597 337.449C230.768 331.607 235.009 325.717 239.061 319.848C244.275 312.544 243.975 312.104 235.57 313.372C226.114 314.443 215.919 316.822 206.642 317.556C180.563 319.641 175.804 302.173 184.084 282.913C189.299 271.002 196.9 258.734 206.556 246.645C211.562 240.234 216.021 233.766 220.813 227.34C221.365 226.562 222.118 225.808 222.995 225.158C237.825 214.475 252.655 203.792 267.63 193.172C286.359 179.889 305.169 166.623 324.058 153.375C331.436 148.353 338.884 143.285 346.471 138.121L337.57 157.965C331.006 173.161 324.441 188.357 317.538 203.355C316.77 205.045 316.525 206.619 316.827 207.926C317.128 209.233 317.965 210.23 319.258 210.821C323.494 213.023 329.078 213.893 335.549 213.359C343.344 212.99 351.252 212.489 358.818 212.382C366.384 212.276 373.324 212.596 380.875 212.767C377.628 217.873 374.307 222.87 371.363 227.823C370.299 229.648 369.64 231.428 369.426 233.057C369.333 233.818 370.692 234.02 371.395 234.453C372.648 233.601 374.179 232.559 374.735 231.43C378.581 225.11 382.214 218.775 386.061 212.456C388.245 208.931 388.264 208.06 384.749 207.985C381.235 207.909 376.825 208.013 372.768 208.038C364.062 208.116 355.312 208.278 346.72 208.224C339.956 208.161 333.191 208.098 326.744 207.604C325.316 207.645 324.192 207.261 323.532 206.506C322.872 205.752 322.71 204.665 323.068 203.4C324.491 199.803 325.435 196.103 327.216 192.584ZM230.03 22.6948C234.743 19.3001 239.552 16.0273 244.439 12.889C242.587 15.7049 155.022 78.1409 147.591 81.5886C148.436 80.6522 149.407 79.7557 150.469 78.9329C159.309 72.9168 168.094 66.67 176.809 60.4706C194.737 48.0548 212.371 35.3565 230.03 22.6948ZM57.8553 195.605L58.7365 195.703L54.9054 202.494C39.3377 198.587 22.4849 196.15 4.52401 195.208L12.3515 188.004L11.6329 192.784C13.9194 190.906 15.6241 189.371 17.4287 187.982C19.2332 186.593 20.2129 186.087 20.7106 186.07C21.1285 186.202 21.4515 186.429 21.6613 186.737C21.8711 187.045 21.9635 187.429 21.9332 187.866C21.9214 189.645 21.6061 191.576 21.3066 193.979L33.2092 185.879C33.3733 188.664 33.4769 191.061 33.7854 193.908L47.2654 185.432L41.8357 197.656L56.8548 189.795L53.3374 199.592L57.8553 195.605ZM59.7913 189.621C50.3414 182.927 35.7933 180.969 18.532 184.066L18.1827 183.553C20.7611 182.108 23.3991 180.929 25.9916 180.062C37.5268 177.85 47.7005 178.352 55.3921 181.51L52.1207 183.737C53.7045 184.268 54.4438 185.804 56.972 182.635C61.9112 183.457 63.2809 183.974 59.7913 189.621ZM62.3079 182.544C54.2082 177.426 42.4416 175.797 28.5763 177.874C33.6811 175.138 38.8906 173.187 43.7804 172.181C48.6703 171.174 53.1021 171.14 56.715 172.081C59.1535 172.646 60.9408 173.894 61.9068 175.706C62.8727 177.519 62.9851 179.835 62.233 182.434L62.3079 182.544ZM62.0759 169.184C58.3817 168.694 54.7373 168.277 50.9235 167.761L64.2869 152.23L74.9022 151.067C70.6167 157.041 66.3312 163.015 62.0759 169.184ZM77.5895 144.839L69.6072 145.98L93.0859 119.273C97.9477 121.329 97.9477 121.329 93.1999 127.671C89.4896 132.395 85.6153 137.178 82.3726 141.691C82.1775 142.083 81.8815 142.483 81.5078 142.861C81.1341 143.24 80.6926 143.586 80.2178 143.872C79.7429 144.159 79.2475 144.379 78.77 144.515C78.2925 144.651 77.8458 144.699 77.4647 144.656L77.5895 144.839ZM111.737 127.823C109.106 132.188 106.217 136.622 103.243 141.381L83.1486 144.328L100.472 121.596C104.267 122.982 107.938 124.186 111.38 125.652C111.673 125.83 111.849 126.106 111.889 126.454C111.93 126.801 111.835 127.209 111.612 127.639L111.737 127.823ZM97.7719 114.635L128.771 78.6261L132.146 78.7967L103.684 114.045L97.7719 114.635ZM105.951 115.131L152.919 56.3446C154.393 56.4147 155.388 56.3809 156.294 56.5152C159.302 56.8267 162.805 56.4384 166.545 55.3791C170.285 54.3198 174.165 52.6167 177.897 50.3963C181.114 48.6893 182.856 48.2552 183.745 50.0105C184.152 50.5474 184.668 51.0051 185.285 51.3761L181.248 54.1236L148.261 77.485C140.444 83.2545 134.121 90.2025 130.43 97.0766C126.43 103.769 122.076 110.541 117.708 117.59L105.951 115.131ZM156.626 93.5176C151.93 103.527 147.114 113.51 142.322 123.53C142.078 123.935 141.772 124.342 141.413 124.738C136.269 123.465 131.081 122.275 126.145 120.86C125.793 120.692 125.558 120.421 125.459 120.068C125.361 119.715 125.402 119.291 125.579 118.831C132.063 109.054 138.687 99.1822 145.116 89.1744C145.458 88.7197 145.832 88.2684 146.233 87.8236C149.695 89.1691 153.107 90.4412 156.305 91.6981C156.522 91.8626 156.652 92.0948 156.686 92.3777C156.72 92.6606 156.657 92.9873 156.502 93.3343L156.626 93.5176ZM168.499 82.3799C161.27 87.6212 160.703 87.6855 155.424 85.9141C153.576 85.2941 152.001 84.3272 149.929 83.3773C154.767 80.4601 155.047 83.8639 158.55 82.8749L159.711 77.8468L170.91 77.8421L176.793 65.6848L188.007 65.402L194.049 53.0293L205.591 52.6304C207.149 49.5318 208.617 46.6014 209.857 43.9337C211.097 41.266 212.141 40.5555 215.213 40.8789C217.165 41.0528 219.325 41.0845 221.963 41.2201L227.012 30.3814L236.767 29.7505C237.718 26.9576 238.774 24.4687 239.338 22.1541C239.513 21.0663 240.165 19.8372 241.196 18.6522C242.226 17.4671 243.579 16.3902 245.051 15.5838C244.736 19.8058 243.263 24.4518 240.714 29.2641C240.167 30.038 239.399 30.7849 238.507 31.4094L211.288 51.2744L168.499 82.3799ZM229.431 201.842C237.745 195.03 246.291 188.408 255.037 182.001C275.669 167.424 295.994 153.591 316.498 139.423C318.864 137.812 321.301 136.154 323.284 134.429C323.727 134.015 324.236 133.642 324.774 133.335C325.313 133.027 325.868 132.794 326.401 132.651C326.934 132.508 327.432 132.459 327.86 132.506C328.289 132.554 328.637 132.697 328.881 132.926L226.903 205.011C227.94 203.393 228.516 202.143 229.51 201.359L229.431 201.842ZM330.4 145.035L319.572 144.09L315.176 155.289L306.498 154.06C303.426 153.737 302.243 154.542 301.208 157.66L298.832 165.393L284.618 166.805L280.335 179.966L263.773 182.118C262.316 186.113 260.72 190.203 259.219 194.283L243.513 196.496L238.341 210.744C234.667 210.134 231.122 209.864 228.174 208.974C226.495 208.453 228.289 206.749 230.119 205.397C239.082 198.814 247.946 192.084 257.288 185.458C279.794 169.444 302.4 153.576 324.982 137.672L328.74 135.114C329.98 134.407 331.234 133.751 332.495 133.149L330.4 145.035Z" fill="#7B3F00" fill-opacity="0.5"/>
</svg>
