<svg width="460" height="466" viewBox="0 0 460 466" fill="none" xmlns="http://www.w3.org/2000/svg">
<path d="M458.743 21.3913C455.18 16.4446 450.193 15.1176 444.585 17.7229C441.738 19.0135 439.303 20.9999 437.732 23.3155C436.16 25.631 435.557 28.1193 436.034 30.3212C436.182 30.9631 436.131 31.6648 435.885 32.3725C435.639 33.0802 435.204 33.775 434.614 34.4034C419.946 45.1325 405.188 55.6729 389.723 66.7831C385.744 61.6487 381.471 56.8096 377.876 51.5687C371.525 42.3869 365.382 33.1833 359.474 23.7897C358.457 21.765 356.516 20.2657 353.956 19.529C351.397 18.7923 348.366 18.8601 345.343 19.7218C326.777 24.2627 308.186 27.0814 289.959 28.1187C287.048 28.2035 283.99 29.1455 281.33 30.7769C265.178 41.1331 249.563 51.9287 233.351 62.159C223.683 68.3307 213.387 73.6429 202.859 79.6075C201.052 75.8312 198.899 73.149 197.1 70.2974C199.368 68.671 201.137 67.5928 202.638 66.4105C209.525 61.0353 214.735 54.4727 217.58 47.5888C220.424 40.7049 220.77 33.8233 218.571 27.852C217.002 22.5584 213.492 18.1212 208.423 15.0233C203.354 11.9254 196.92 10.2855 189.822 10.2821C186.739 9.978 184.311 10.1339 183.753 6.92054C183.018 4.60056 181.349 2.70917 178.962 1.49224C176.576 0.275306 173.582 -0.210865 170.371 0.0969349C167.401 0.544121 164.436 1.74564 161.915 3.52295C159.394 5.30025 157.452 7.55846 156.378 9.96197C155.515 13.7008 155.264 17.3842 155.633 20.9138C155.995 21.6691 154.699 22.5985 153.61 23.5061C147.879 27.6328 143.277 32.6935 140.301 38.1391C137.325 43.5848 136.089 49.2075 136.728 54.3972C137.438 59.1351 138.956 63.6085 141.245 67.7048C146.443 77.206 155.343 82.848 171.244 78.335C180.85 75.6733 186.842 76.8284 189 83.8398C189.225 84.2215 189.416 84.6209 189.572 85.0357L187.093 86.2215C166.11 96.259 145.128 106.296 123.935 115.893C120.419 117.506 116.653 118.339 113.112 118.286C96.6676 117.568 80.3962 116.303 64.038 115.312C62.7891 115.01 61.3894 114.974 59.9488 115.207C58.5082 115.44 57.0657 115.936 55.7343 116.655C54.4029 117.374 53.2187 118.298 52.2746 119.353C51.3305 120.409 50.6521 121.567 50.2925 122.738C41.9538 139.875 34.0295 156.969 25.898 174.084C24.0037 178.084 22.3165 182.062 20.3974 186.692C16.7619 183.868 14.0471 181.377 10.8313 179.203C7.61543 177.029 5.87274 173.841 0.46148 175.038C0.53985 176.414 1.12481 177.637 2.14753 178.562C6.23472 182.33 10.1448 186.183 14.5259 189.656C15.9378 190.504 16.8326 191.792 17.0743 193.324C17.3161 194.855 16.8916 196.547 15.8654 198.141C14.4667 201.13 11.7756 205.511 16.1954 206.336C18.8055 206.789 23.287 204.104 26.9205 202.83C27.3578 201.924 27.9829 202.321 28.5194 202.761C48.6482 218.912 68.6885 235.105 88.6402 251.341C89.5593 252.399 89.9143 253.781 89.6481 255.267C89.2926 257.495 89.5718 259.624 90.4643 261.49C91.3568 263.355 92.8388 264.908 94.7966 266.03C99.6167 268.828 103.73 268.33 108.498 264.425C110.78 262.667 112.344 260.42 112.862 258.154C113.38 255.887 112.812 253.778 111.277 252.268C109.811 250.48 107.71 249.14 105.158 248.366C102.606 247.591 99.6817 247.405 96.6401 247.824C95.3176 248.026 94.085 247.812 93.1995 247.227C72.7814 230.698 52.5405 214.085 32.1224 197.557C31.2035 196.923 30.6277 196.017 30.4714 194.959C30.3151 193.901 30.5856 192.742 31.2472 191.633C36.199 180.835 40.825 170.037 45.6581 159.217C50.4913 148.398 54.866 139.576 59.292 129.725L128.064 132.712C131.205 132.911 135.021 132.245 137.281 133.33C153.661 140.962 169.687 148.764 185.535 156.651C193.98 160.886 201.954 165.502 210.492 170.157C208.783 171.361 207.694 172.269 206.515 172.988C192.984 181.317 179.211 189.143 166.098 197.891C146.65 210.117 129.296 224.661 114.921 240.78C114.303 241.52 113.847 242.316 113.579 243.122C113.311 243.927 113.235 244.726 113.357 245.472C117 259.677 123.117 272.922 131.553 284.874C132.872 287.125 135.157 288.79 138.095 289.64C141.034 290.491 144.483 290.487 147.97 289.627C165.298 285.823 182.573 282.818 199.901 279.015C208.181 277.219 216.482 274.331 224.994 271.884C222.472 294.531 217.798 317.451 211.011 340.445L244.211 324.563C244.921 326.531 245.491 328.556 245.917 330.631C250.386 353.164 254.679 375.782 259.237 398.274C259.894 401.584 261.525 404.529 264.013 406.894C275.618 417.507 287.605 427.782 299.533 438.162C301.442 439.879 303.44 441.553 305.377 443.101C302.879 445.611 300.586 447.868 298.442 450.208C296.298 452.549 294.186 455.183 292.132 457.713C290.078 460.242 286.91 464.31 290.712 465.662C292.554 466.328 297.066 463.705 300.047 462.434C301.163 461.758 302.139 460.921 302.902 459.985L313.421 448.998C320.528 441.113 320.242 438.697 313.208 433.09C302.897 424.952 292.585 416.815 282.98 408.107C276.784 403.703 272.386 397.86 270.14 391.047C265.639 368.219 260.367 345.373 255.152 322.191C254.539 319.545 255.416 317.966 259.015 316.166C284.07 304.181 309.125 292.195 333.939 279.706C334.629 279.33 335.339 278.99 336.064 278.689C338.653 284.102 341.092 289.2 343.561 294.361C350.208 311.212 356.589 328.191 363.236 345.042C364.179 347.076 365.649 348.839 367.572 350.239C383.125 362.056 398.916 373.915 414.496 385.333C409.949 391.065 405.461 396.693 400.944 402.489C398.832 405.123 398.527 407.898 401.731 408.454C402.953 408.593 404.282 408.47 405.6 408.095C406.919 407.72 408.188 407.106 409.297 406.304C415.671 399.388 421.599 392.221 427.378 384.971C427.753 384.174 427.916 383.364 427.853 382.604C427.791 381.843 427.505 381.151 427.018 380.58C424.034 377.753 420.637 375.202 417.271 372.713C403.149 362.067 388.849 351.506 374.638 340.903C373.581 339.981 372.763 338.884 372.213 337.654C363.699 317.79 356.95 297.149 352.007 275.857C351.062 272.288 352.473 270.917 356.605 269.095C366.078 264.563 375.64 259.989 386.618 254.737L328.202 223.594L334.006 219.58C355.05 205.262 373.596 188.525 388.718 170.205C390.55 168.05 391.884 165.718 392.632 163.361C393.379 161.003 393.524 158.675 393.055 156.529C390.036 140.774 381.255 127.221 367.693 117.385C366.833 116.686 365.653 116.28 364.307 116.22C358.458 116.008 352.436 116.298 346.334 117.084C325.446 120.932 304.546 126.825 284.119 134.626L260.406 143.959C263.899 109.186 275.565 74.2161 285.187 39.2953C302.807 39.1002 321.042 36.5145 339.185 31.639C345.128 30.1884 348.563 30.0919 351.381 34.3899C359.478 47.2221 368.548 59.5885 377.265 72.1242C377.681 72.4717 377.965 72.9154 378.095 73.4219C378.226 73.9284 378.199 74.4844 378.018 75.0478C377.837 75.6112 377.506 76.1674 377.05 76.6742C376.594 77.1811 376.024 77.6253 375.385 77.9734C370.466 81.5639 365.905 85.4473 361.314 89.2678C360.026 90.5125 358.828 91.8091 357.73 93.1476L358.864 94.1523C368.229 90.987 373.588 83.0867 382.086 78.7897C382.631 79.2729 383.239 79.7066 383.902 80.0861C386.488 81.1696 388.73 83.8094 392.914 80.9572C397.098 78.1049 394.475 76.0338 393.335 74.1045C392.194 72.1752 393.952 69.71 396.633 67.8089C410.212 57.9874 423.791 48.1659 436.925 38.325C438.14 37.1898 439.629 36.2639 441.243 35.6416C442.856 35.0192 444.535 34.7227 446.11 34.7821C448.827 34.7444 451.7 33.8912 454.207 32.3779C455.369 31.7279 456.414 30.9215 457.277 30.0079C458.141 29.0944 458.805 28.0929 459.23 27.0646C459.654 26.0363 459.83 25.0029 459.746 24.0275C459.663 23.0521 459.321 22.1551 458.743 21.3913ZM132.691 229.031C133.484 232.054 134.214 234.489 134.855 236.967L120.249 240.319L132.691 229.031ZM136.329 239.82C137.864 243.03 138.479 245.907 139.779 249.306L126.431 250.742L136.329 239.82ZM141.883 253.25C143.599 256.837 144.894 259.543 145.751 263.155L130.93 265.605L141.883 253.25ZM140.916 277.61L140.405 276.54L148.273 267.517L152.7 273.133L140.916 277.61ZM149.006 285.651L155.962 277.451L161.071 283.127L149.006 285.651ZM352.562 259.505L357.811 245.006C362.78 247.889 367.391 250.478 372.897 253.799L339.968 270.248L232.648 323.134L221.227 328.597C220.177 329.007 219.11 329.362 218.036 329.66L223.79 311.439L238.493 316.703L244.478 301.697C247.393 303.242 249.684 304.62 252.181 305.746C256.433 307.811 257.644 307.387 259.386 302.841C261.128 298.295 261.645 296.192 262.916 292.026L278.115 296.279L286.053 281.035L303.646 284.607C306.326 278.839 308.334 274.166 310.605 269.135L328.228 272.77C330.032 268.582 331.898 264.75 333.408 260.857C333.493 260.325 333.746 259.784 334.142 259.286C334.539 258.787 335.065 258.348 335.671 258.012C336.276 257.676 336.94 257.453 337.598 257.366C338.256 257.279 338.885 257.33 339.425 257.514C343.726 258.318 347.995 258.828 352.739 259.421L352.562 259.505ZM318.895 222.787C275.052 249.233 226.87 268.715 177.87 279.809C166.929 282.182 166.929 282.182 162.602 274.274C170.67 271.807 178.829 269.76 186.774 266.81C203.903 260.317 220.792 253.321 237.892 246.765C251.949 241.355 266.157 236.26 280.305 231.039C304.242 222.704 327.552 212.125 349.669 199.558C350.509 199.118 351.366 198.708 352.236 198.33L353.251 199.314C341.878 207.152 331.044 215.661 319.072 222.702L318.895 222.787ZM371.204 180.671C371.656 181.615 369.19 184.419 367.479 185.392C348.999 196.973 329.5 207.157 309.333 215.76C283.405 225.921 257.385 235.661 231.457 245.822C217.429 251.295 203.526 257.482 189.408 262.766C180.646 265.905 171.796 268.667 162.903 271.037C161.487 271.714 159.643 270.817 158.042 270.655L158.148 269.058L361.353 151.663C365.165 161.905 368.525 171.203 371.382 180.586L371.204 180.671ZM156.062 267.426L145.043 244.391C151.683 241.214 158.799 238.351 165.797 235.468C202.113 220.415 238.701 205.929 274.716 190.247C299.366 179.46 323.409 166.953 347.756 155.306L353.776 152.426L156.062 267.426ZM375.605 178.953L374.63 171.685L385.569 169.081L375.605 178.953ZM361.225 142.753L373.274 138.149L373.636 138.904L365.123 148.854L361.225 142.753ZM373.799 167.674L372.403 163.392L380.913 160.713L381.275 161.468L373.799 167.674ZM380.441 149.492L370.657 159.741L367.436 153.007L380.441 149.492ZM359.626 138.955L354.543 132.879L369.5 128.895L359.626 138.955ZM361.593 121.463L352.294 129.314L346.505 123.808L361.593 121.463ZM330.444 126.851C333.615 125.455 337.021 125.01 339.933 125.612C342.844 126.215 345.03 127.816 346.02 130.073C349.734 135.334 353.594 140.448 357.696 146.065C353.623 148.013 350.794 149.831 347.784 151.271C322.91 163.634 298.305 176.333 273.129 188.067C257.282 195.648 240.56 201.172 224.321 207.935C208.082 214.698 190.636 222.348 173.779 229.639L144.108 242.208C140.621 239.468 143.33 237.399 146.126 235.056C170.575 215.331 197.107 197.447 225.184 181.768C255.56 164.53 286.684 148.403 317.57 132.004C321.771 130.035 326.077 128.312 330.444 126.851ZM301.687 134.962C245.552 164.986 190.072 195.471 141.125 235.746C139.816 232.641 138.781 229.416 138.029 226.09C137.608 225.209 139.872 223.121 141.345 222.106C156.783 211.396 172.071 200.37 188.017 190.267C211.989 174.924 237.269 161.301 263.442 149.622C275.876 144.281 288.498 139.457 301.244 135.174L301.687 134.962ZM275.2 53.8953C274.743 58.7554 272.637 63.7777 269.109 68.4226C265.58 73.0675 260.763 77.1593 255.174 80.2585C232.643 94.4107 208.898 106.91 184.344 117.545C175.49 121.78 166.637 126.015 157.784 130.25C156.183 130.945 154.555 131.568 152.911 132.118L152.744 125.855L145.838 129.159L140.66 118.334L164.185 126.802C165.339 118.98 166.319 111.705 167.476 104.345L192.151 112.031L198.638 89.2059L220.184 98.3117C223.104 89.1803 225.712 81.6683 228.578 73.1045C230.556 74.377 232.641 75.5477 234.826 76.6125C238.338 78.1895 242.039 79.545 245.906 80.6704C249.32 81.6667 251.829 80.5438 252.985 76.8199C254.918 70.1719 257.472 63.4587 259.347 56.916C262.154 59.827 265.139 62.8845 268.095 65.879L269.866 65.0319L278.781 38.1836L280.173 38.1366C278.062 43.4254 276.313 48.7296 274.934 54.0224L275.2 53.8953Z" fill="#7B3F00" fill-opacity="0.5"/>
</svg>
