<svg width="63" height="84" viewBox="0 0 63 84" fill="none" xmlns="http://www.w3.org/2000/svg">
<path d="M36.3121 22.4225C36.3121 24.692 37.9331 26.3131 40.2026 26.3131H62.2492V79.4843C62.2492 81.7538 60.4661 83.3749 58.3587 83.3749H3.89058C1.62107 83.3749 0 81.7538 0 79.4843V4.26647C0 2.15907 1.62107 0.375888 3.89058 0.375888H36.3121V22.4225ZM46.6869 60.6798V59.383C46.6869 58.4103 45.7143 57.4377 44.7416 57.4377H17.5076C16.3728 57.4377 15.5623 58.4103 15.5623 59.383V60.6798C15.5623 61.8146 16.3728 62.6251 17.5076 62.6251H44.7416C45.7143 62.6251 46.6869 61.8146 46.6869 60.6798ZM46.6869 50.305V49.0081C46.6869 48.0355 45.7143 47.0628 44.7416 47.0628H17.5076C16.3728 47.0628 15.5623 48.0355 15.5623 49.0081V50.305C15.5623 51.4397 16.3728 52.2503 17.5076 52.2503H44.7416C45.7143 52.2503 46.6869 51.4397 46.6869 50.305ZM46.6869 38.6332C46.6869 37.6606 45.7143 36.6879 44.7416 36.6879H17.5076C16.3728 36.6879 15.5623 37.6606 15.5623 38.6332V39.9301C15.5623 41.0648 16.3728 41.8754 17.5076 41.8754H44.7416C45.7143 41.8754 46.6869 41.0648 46.6869 39.9301V38.6332ZM62.2492 20.153V21.1256H41.4995V0.375888H42.4721C43.4448 0.375888 44.4174 0.86221 45.228 1.51064L61.1145 17.3972C61.7629 18.2077 62.2492 19.1803 62.2492 20.153Z" fill="#7B3F00"/>
</svg>
