<svg width="83" height="84" viewBox="0 0 83 84" fill="none" xmlns="http://www.w3.org/2000/svg">
<path d="M72.5 10.8571C78.1641 10.8571 82.8571 15.5502 82.8571 21.2143V73C82.8571 78.8259 78.1641 83.3571 72.5 83.3571H10.3571C4.53125 83.3571 0 78.8259 0 73V21.2143C0 15.5502 4.53125 10.8571 10.3571 10.8571H14.4029C11.8136 15.5502 10.3571 20.8906 10.3571 26.3929C10.3571 43.5469 24.2746 57.4643 41.4286 57.4643C58.4208 57.4643 72.5 43.5469 72.5 26.3929C72.5 20.8906 70.8817 15.5502 68.2924 10.8571H72.5ZM41.4286 52.2857C27.0257 52.2857 15.5357 40.7958 15.5357 26.3929C15.5357 12.1518 27.0257 0.499996 41.4286 0.499996C55.6696 0.499996 67.3214 12.1518 67.3214 26.3929C67.3214 40.7958 55.6696 52.2857 41.4286 52.2857ZM41.2667 27.8493C37.7065 27.8493 34.9554 30.7623 34.9554 34.1607C34.9554 37.8828 37.7065 40.6339 41.4286 40.6339C44.9888 40.6339 47.9018 37.8828 47.9018 34.1607C47.9018 32.5424 47.0926 30.9241 46.1217 29.7913L51.4621 17.1685C52.1094 15.8739 51.4621 14.2556 50.1674 13.7701C48.8728 13.1228 47.2545 13.7701 46.769 15.0647L41.2667 27.8493Z" fill="white"/>
</svg>
