<svg width="88" height="88" viewBox="0 0 88 88" fill="none" xmlns="http://www.w3.org/2000/svg">
<path d="M37.1488 0.267062H50.8512C53.0778 0.267062 54.9618 2.15113 54.9618 4.37776V33.1526H69.8631C72.9461 33.1526 74.4876 36.9207 72.261 39.1474L46.2266 65.1818C45.0277 66.3807 42.801 66.3807 41.6021 65.1818L15.5677 39.1474C13.3411 36.9207 14.8826 33.1526 17.9656 33.1526H33.0382V4.37776C33.0382 2.15113 34.7509 0.267062 37.1488 0.267062ZM87.8474 64.6679V83.8512C87.8474 86.2491 85.9633 87.9618 83.7367 87.9618H4.2633C1.8654 87.9618 0.152607 86.2491 0.152607 83.8512V64.6679C0.152607 62.4413 1.8654 60.5572 4.2633 60.5572H29.27L37.6627 68.9499C41.0883 72.5467 46.7405 72.5467 50.166 68.9499L58.5587 60.5572H83.7367C85.9633 60.5572 87.8474 62.4413 87.8474 64.6679ZM66.6088 79.7405C66.6088 77.8564 65.0673 76.3149 63.1832 76.3149C61.2992 76.3149 59.7577 77.8564 59.7577 79.7405C59.7577 81.6245 61.2992 83.166 63.1832 83.166C65.0673 83.166 66.6088 81.6245 66.6088 79.7405ZM77.5707 79.7405C77.5707 77.8564 76.0292 76.3149 74.1451 76.3149C72.261 76.3149 70.7195 77.8564 70.7195 79.7405C70.7195 81.6245 72.261 83.166 74.1451 83.166C76.0292 83.166 77.5707 81.6245 77.5707 79.7405Z" fill="white"/>
</svg>
