<svg width="33" height="33" viewBox="0 0 33 33" fill="none" xmlns="http://www.w3.org/2000/svg">
<path d="M16.4465 8.62547C20.9205 8.62547 24.6133 12.3183 24.6133 16.7923C24.6133 21.3373 20.9205 24.959 16.4465 24.959C11.9016 24.959 8.27976 21.3373 8.27976 16.7923C8.27976 12.3183 11.9016 8.62547 16.4465 8.62547ZM16.4465 22.1184C19.3582 22.1184 21.7017 19.7749 21.7017 16.7923C21.7017 13.8806 19.3582 11.5371 16.4465 11.5371C13.4639 11.5371 11.1204 13.8806 11.1204 16.7923C11.1204 19.7749 13.5349 22.1184 16.4465 22.1184ZM26.8148 8.34141C26.8148 9.40664 25.9626 10.2588 24.8974 10.2588C23.8322 10.2588 22.98 9.40664 22.98 8.34141C22.98 7.27617 23.8322 6.42399 24.8974 6.42399C25.9626 6.42399 26.8148 7.27617 26.8148 8.34141ZM32.212 10.2588C32.354 12.8864 32.354 20.7691 32.212 23.3967C32.07 25.9533 31.5018 28.1547 29.6554 30.0722C27.809 31.9186 25.5365 32.4867 22.98 32.6287C20.3524 32.7708 12.4697 32.7708 9.8421 32.6287C7.28554 32.4867 5.08406 31.9186 3.16664 30.0722C1.32023 28.1547 0.752109 25.9533 0.610078 23.3967C0.468047 20.7691 0.468047 12.8864 0.610078 10.2588C0.752109 7.70227 1.32023 5.42977 3.16664 3.58336C5.08406 1.73696 7.28554 1.16884 9.8421 1.0268C12.4697 0.884773 20.3524 0.884773 22.98 1.0268C25.5365 1.16884 27.809 1.73696 29.6554 3.58336C31.5018 5.42977 32.07 7.70227 32.212 10.2588ZM28.8033 26.1663C29.6554 24.1069 29.4424 19.1358 29.4424 16.7923C29.4424 14.5198 29.6554 9.54867 28.8033 7.4182C28.2351 6.06891 27.1699 4.93266 25.8206 4.43555C23.6901 3.58336 18.719 3.79641 16.4465 3.79641C14.103 3.79641 9.13195 3.58336 7.07249 4.43555C5.65218 5.00368 4.58695 6.06891 4.01882 7.4182C3.16664 9.54867 3.37968 14.5198 3.37968 16.7923C3.37968 19.1358 3.16664 24.1069 4.01882 26.1663C4.58695 27.5866 5.65218 28.6519 7.07249 29.22C9.13195 30.0722 14.103 29.8591 16.4465 29.8591C18.719 29.8591 23.6901 30.0722 25.8206 29.22C27.1699 28.6519 28.3061 27.5866 28.8033 26.1663Z" fill="#515151"/>
</svg>
