<svg width="318" height="380" viewBox="0 0 318 380" fill="none" xmlns="http://www.w3.org/2000/svg">
<path d="M219.846 185.548L230.171 188.197C250.201 193.59 270.232 198.983 290.309 204.24C295.098 205.527 299.945 206.528 304.808 207.235C310.582 208.046 312.452 206.553 312.798 202.345C313.607 195.032 314.164 188.469 314.572 181.476C315.804 161.636 316.566 142.321 317.442 122.666C317.769 120.363 317.169 117.921 315.731 115.691C314.292 113.461 312.089 111.557 309.437 110.255C306.914 108.96 304.296 107.823 301.61 106.855L268.657 94.371L256.253 89.5029C257.792 84.9398 259.263 80.5809 260.734 76.2221C261.4 74.247 262.243 73.7728 265.035 73.8805C272.069 74.7276 278.993 74.2034 285.232 72.3511C291.472 70.4988 296.849 67.3719 300.917 63.2294C304.59 58.8993 307.187 53.945 308.586 48.5965C309.87 44.4172 310.081 39.9411 309.209 35.4262C308.336 30.9112 306.396 26.4466 303.501 22.2896C300.606 18.1325 296.812 14.3652 292.339 11.2046C287.866 8.04406 282.802 5.55269 277.439 3.87408C270.278 1.5041 262.788 0.485162 255.579 0.900318C248.37 1.31548 241.646 3.15298 235.956 6.26306C229.533 9.50647 224.573 14.2602 221.598 20.0245C218.623 25.7888 217.743 32.3507 219.05 39.0202C219.808 45.0785 222.582 51.1031 227.066 56.4308C231.551 61.7585 237.572 66.1826 244.466 69.216C245.167 69.4524 246.099 70.4496 245.961 70.8582C244.444 75.3532 243.628 80.0847 242.328 84.8046L239.701 83.9181L209.737 74.7182C201.368 72.4081 193.199 69.3719 185.38 65.6657C164.267 54.5209 142.656 44.2706 121.003 33.8545C114.245 29.8556 106.701 27.0249 98.924 25.5703C94.2235 25.0463 93.2558 25.0233 92.213 28.692C90.1218 34.8897 88.6437 41.2943 87.1655 47.6988C86.3855 51.4562 86.4439 55.0414 85.8949 59.5595L77.6336 60.3374C52.7867 62.0368 31.3045 71.9494 17.9023 87.8996C10.1141 96.3438 4.81143 106.301 2.32708 117.147C-0.157279 127.992 0.230324 139.492 3.46554 150.923C9.34705 170.16 23.137 188.092 42.3821 201.529C60.4829 215.576 82.4036 225.607 105.504 230.413C111.338 231.623 117.2 232.463 123.915 233.667C111.92 240.019 100.507 247.01 89.7334 254.602L89.9371 255.733L142.973 269.986C141.596 270.887 140.795 271.527 139.818 272.108L105.177 294.405C103.403 295.425 102.134 296.915 101.539 298.678C100.945 300.441 101.051 302.394 101.845 304.281C105.554 314.104 109.438 323.987 113.013 333.917C115.428 340.346 117.402 346.929 119.638 353.6C114.759 354.761 110.147 355.709 105.78 356.511C103.218 357.164 101.395 358.521 102.503 361.019C103.611 363.517 106.228 363.565 108.721 363.117C113.526 362.462 118.309 361.876 122.985 361.026C132.623 359.347 131.77 358.984 129.668 352.206C126.789 342.814 124.044 333.315 120.902 323.835C118.726 317.563 115.868 311.288 113.517 304.957C113.386 304.43 113.403 303.903 113.566 303.418C113.73 302.934 114.036 302.505 114.46 302.165C117.775 299.566 121.487 296.95 124.839 294.819C134.928 287.855 145.016 280.892 155.104 273.928C155.585 273.708 156.134 273.58 156.714 273.554C157.294 273.527 157.893 273.603 158.473 273.775L213.796 291.076L215.636 291.697C213.236 293.315 211.192 294.749 209.018 295.988C199.922 301.263 190.867 306.705 181.425 311.56C179.02 312.603 177.2 314.301 176.225 316.41C175.25 318.52 175.171 320.934 175.998 323.308C178.342 331.685 179.976 340.429 182.864 349.217C184.583 355.107 187.007 360.932 189.127 366.502C186.835 367.296 184.612 368.192 182.466 369.186C179.62 370.55 177.053 372.232 174.826 374.194C172.441 376.348 174.056 378.789 177.835 379.154C180.148 379.397 182.417 379.202 184.465 378.584C189.436 377.151 194.148 375.327 199.054 373.797C200.04 373.624 200.842 373.125 201.285 372.408C201.728 371.69 201.776 370.813 201.419 369.967C197.648 356.86 194.075 343.745 190.215 330.608C187.212 320.719 187.078 320.826 196.654 315.864C208.445 309.829 220.282 303.657 232.118 297.486C232.94 297.161 233.928 297.116 234.892 297.36L263.007 305.101L280.936 309.785C258.611 268.115 242.691 226.255 219.846 185.548ZM221.373 255.323C229.001 257.29 236.624 259.559 244.298 261.389C245.774 261.607 247.184 262.252 248.264 263.203C249.344 264.154 250.019 265.346 250.164 266.555L131.475 237.28C133.137 236.85 134.916 236.656 136.741 236.705C147.562 238.46 158.365 239.981 169.066 242.378C186.543 246.378 203.946 250.885 221.396 255.255L221.373 255.323ZM305.066 128.124L305.766 128.361C301.703 150.81 306.332 174.675 302.071 197.133L230.378 178.329C255.477 161.764 280.38 145.006 305.089 128.056L305.066 128.124ZM219.939 111.842C212.007 109.621 204.263 106.553 196.468 103.923C192.79 102.682 193.194 100.618 192.459 98.1706L290.831 126.659L291.126 127.517C289.349 128.738 287.548 130.027 285.641 131.053C285.279 131.216 284.86 131.299 284.42 131.296C283.981 131.292 283.532 131.203 283.112 131.034C262.378 123.582 241.286 117.149 219.962 111.774L219.939 111.842ZM191.732 78.3533C194.736 83.6152 198.031 88.5957 201.694 93.9282L221.704 85.5075L224.981 91.6959C226.697 94.7027 228.635 97.6324 230.264 100.61C231.894 103.587 232.589 102.683 234.643 102.087C240.323 100.286 246.224 98.4086 252.342 96.7557L260.34 111.213L279.708 106.141L287.825 119.955L306.263 116.77L306.757 117.619L294.345 125.493C290.755 124.282 287.427 123.159 284.187 122.066C260.765 114.21 237.032 107.342 213.092 101.491C206.975 99.9584 200.974 98.0852 195.209 96.6708C194.183 96.4447 193.225 95.9564 192.484 95.2812C191.742 94.606 191.257 93.7813 191.104 92.9343C189.343 86.8782 187.384 80.8311 185.407 74.5502C186.696 74.6852 187.969 75.1046 189.088 75.763C190.207 76.4214 191.129 77.2937 191.755 78.2852L191.732 78.3533ZM181.881 90.2017L175.732 92.5267L170.061 83.027L170.29 82.346L181.881 90.2017ZM116.504 42.2742C129.103 48.8769 141.237 55.7021 154.053 62.5297C159.359 65.3063 164.845 67.8399 170.376 70.2374C172.714 70.9069 174.826 72.1762 176.371 73.8401C177.916 75.504 178.804 77.4652 178.891 79.4066C179.015 80.4143 179.228 81.4244 179.529 82.4289C153.204 66.4915 124.489 62.2644 95.3134 59.3995C96.9697 51.3103 98.6031 43.2892 100.264 34.898C106.109 36.9459 111.488 39.2162 116.642 41.8655L116.504 42.2742ZM161.873 78.6714C160.633 79.4787 159.46 80.3492 158.359 81.2789C158.129 81.556 157.82 81.7795 157.453 81.934C157.086 82.0886 156.67 82.1706 156.234 82.1745C155.798 82.1785 155.351 82.1042 154.924 81.9568C154.497 81.8094 154.1 81.5923 153.761 81.3204L140.906 72.5832L141.205 71.6978L161.873 78.6714ZM130.66 69.1259L127.752 73.986L113.812 67.31L114.111 66.4246L130.66 69.1259ZM103.516 65.7327L100.184 75.6082L72.1984 68.062C81.9932 65.6765 92.5165 64.8572 103.254 65.6441L103.516 65.7327ZM64.5042 69.183L73.216 82.9705L40.3539 79.4684C46.7571 74.2164 54.9877 70.6419 64.2415 69.0943L64.5042 69.183ZM35.4534 82.139C42.2417 88.4816 47.4744 95.7606 50.7888 103.472L16.2349 104.406C21.1503 96.1243 27.5267 88.6045 35.1907 82.0504L35.4534 82.139ZM9.98189 130.743L8.58067 130.271L13.1102 109.041L44.2872 119.56L9.98189 130.743ZM15.6051 158.888C11.9944 151.845 9.84331 144.519 9.25033 137.248L41.7111 135.001C32.9766 142.674 24.2148 150.718 15.3424 158.8L15.6051 158.888ZM38.1081 188.177C30.4605 181.888 24.1686 174.612 19.584 166.755L51.7578 163.046L38.1081 188.177ZM45.5099 195.15L70.0733 188.266L67.9544 210.158L45.5099 195.15ZM77.9437 214.666L98.3189 208.341L98.6992 221.669L77.9437 214.666ZM109.203 224.075L109.387 223.531L121.04 217.904L121.807 225.749L109.203 224.075ZM86.4146 190.139C76.2454 182.515 68.2218 173.18 63.0886 163C54.6289 148.235 51.7899 132.341 54.9851 117.632C56.3297 108.275 61.0419 99.8549 68.5547 93.3861C76.0674 86.9174 86.0607 82.6752 97.3322 81.1699C111.755 79.0038 127.136 79.7988 142.201 83.4889C153.011 85.8817 163.397 90.1635 172.602 96.0221C186.378 104.919 186.774 104.901 190.168 118.259C194.671 135.558 198.58 152.883 202.687 170.199C202.526 170.676 202.365 171.153 202.836 172.07C197.31 170.813 192.047 169.644 186.742 168.309C178.391 166.174 170.039 164.039 161.757 161.699C161.083 161.504 160.447 161.198 159.891 160.801C159.334 160.404 158.872 159.925 158.534 159.398C155.177 151.134 152.018 142.862 148.969 134.551C148.882 134.166 148.899 133.783 149.018 133.429C149.137 133.076 149.356 132.761 149.658 132.507C152.144 130.023 153.337 126.758 153.029 123.284C152.721 119.81 150.931 116.348 147.974 113.505C147.194 112.817 146.373 112.16 145.516 111.538C143.785 109.965 141.619 108.759 139.264 108.057C136.909 107.355 134.46 107.186 132.196 107.569C129.932 107.951 127.944 108.87 126.458 110.221C124.973 111.571 124.049 113.299 123.793 115.208C123.232 118.1 123.465 121.154 124.478 124.163C125.369 126.757 127.303 129.149 129.945 130.928C132.588 132.706 135.772 133.757 138.946 133.9C140.523 134.432 142.398 134.078 144.508 134.183L153.912 159.508C151.915 159.237 149.919 159.071 147.935 159.008C146.701 158.86 145.513 159.089 144.603 159.651C143.692 160.213 143.124 161.067 143.007 162.049C142.295 164.16 144.54 165.6 146.684 166.475C148.827 167.35 153.602 168.81 157.105 169.992C158.613 170.639 159.885 171.657 160.716 172.879C162.331 175.32 163.48 177.984 164.962 180.532C165.775 181.696 166.662 182.831 167.619 183.932C169.182 179.301 165.976 175.792 164.829 171.384L186.099 176.285C191.888 177.631 197.608 179.182 203.328 180.733C204.408 180.987 205.467 181.344 206.48 181.796C206.126 182.587 205.619 183.311 204.975 183.944L169.491 206.715C165.406 209.281 161.326 211.546 157.195 214.248C156.184 214.855 154.888 215.116 153.532 214.985C129.615 212.189 106.196 203.546 86.3916 190.207L86.4146 190.139ZM103.911 253.924L104.141 253.243L120.823 243.699L127.4 256.008L143.32 245.828L150.2 261.577C155.386 258.927 160.236 256.694 164.805 254.14C169.374 251.585 168.973 251.905 171.622 255.909C174.27 259.912 176.397 263.437 178.852 267.148L181.699 271.143C185.287 269.471 188.631 267.944 191.846 266.222C195.06 264.5 198.013 262.689 201.54 260.617C203.576 264.414 205.371 268.055 207.563 271.677C209.755 275.299 210.226 276.217 211.624 278.433C213.022 280.65 214.147 280.498 216.03 279.541C221.705 276.6 227.683 273.914 233.445 271.003L242.132 288.044L257.042 280.862C260.356 287.518 263.435 293.715 266.597 300.244C212.192 284.845 159.046 266.003 104.151 254.081L103.911 253.924Z" fill="#7B3F00" fill-opacity="0.5"/>
</svg>
