<svg width="294" height="405" viewBox="0 0 294 405" fill="none" xmlns="http://www.w3.org/2000/svg">
<path d="M256.979 127.362C251.562 126.825 246.2 126.908 240.691 126.717C240.951 125.843 241.301 124.624 241.571 123.349C244.789 112.359 247.471 101.528 250.31 90.5711C251.535 85.7476 250.394 83.221 246.223 82.0739C243.028 81.2279 239.803 80.7733 236.603 80.7176L193.292 78.2439C185.899 77.6048 178.63 78.6341 171.869 81.2772L147.933 91.3486L136.293 95.8489C134.171 90.031 132.181 84.652 130.168 79.1998L132.779 77.069C137.711 73.4438 141.486 68.0747 143.65 61.6097C145.814 55.1448 146.273 47.8601 144.973 40.6348C143.761 34.3842 141.934 28.2452 139.529 22.3497C137.363 16.1556 133.693 10.7012 129.026 6.74133C124.359 2.78141 118.926 0.511722 113.479 0.246306C105.911 -0.361461 98.5901 1.5694 92.3573 5.81743C75.8655 15.8227 69.3453 35.9971 77.377 56.2188C79.5798 62.9232 83.1758 69.0163 87.804 73.886C92.4321 78.7557 97.9292 82.2305 103.743 83.961C109.585 85.0886 115.442 85.6616 121.257 85.6744C122.476 89.7702 124.738 94.7502 126.744 99.9653L124.355 101.314C113.723 106.151 102.923 110.64 92.5849 116.026C84.9036 119.605 77.7601 124.408 71.3324 130.315C59.738 141.729 49.5397 155.434 38.7981 168.186C37.6619 169.333 36.9001 170.917 36.6201 172.714C36.3401 174.512 36.5561 176.433 37.2377 178.205C39.415 185.52 41.5923 192.834 43.7696 200.148C35.4697 205.405 27.2777 210.153 19.5855 215.707C11.5821 220.786 5.3031 228.75 1.54193 238.595C0.367068 241.506 -0.125876 244.81 0.109559 248.194C0.344994 251.579 1.30105 254.933 2.88765 257.941C8.58186 268.349 14.6659 278.321 20.9942 288.461C27.4341 298.626 35.6182 307.137 44.9037 313.325C54.1893 319.513 64.3235 323.21 74.5105 324.124C75.5018 324.493 76.4543 325.043 77.3317 325.753C78.6718 326.548 80.0668 327.964 81.4116 328.121C87.1843 328.874 92.8884 328.169 98.145 326.056C103.402 323.942 108.09 320.466 111.9 315.86C112.934 314.658 113.692 313.155 114.113 311.469C114.535 309.782 114.608 307.959 114.328 306.14C114.155 304.751 114.422 303.393 115.077 302.334C122.026 293.703 126.056 282.215 126.522 269.706C127.12 254.063 124.816 238.069 119.771 222.828C118.986 220.78 118.54 218.612 118.456 216.451C118.537 213.854 118.093 211.203 117.16 208.713C116.227 206.222 114.832 203.965 113.088 202.125C107.429 195.777 100.215 191.885 92.8308 191.196C79.8974 189.738 67.143 191.395 55.3401 196.066C53.2535 196.687 52.4785 196.918 51.3634 193.826C49.7739 188.487 47.3498 183.396 45.1046 178.252C44.8569 177.894 44.671 177.485 44.5595 177.054C44.448 176.622 44.4134 176.177 44.4581 175.749C44.5028 175.321 44.6257 174.92 44.8185 174.572C45.0114 174.224 45.2698 173.938 45.5764 173.733C49.0093 170.003 52.1764 166.035 55.5497 162.324L78.865 136.433L79.8417 137.098C109.352 161.122 137.707 187.258 164.724 215.338C165.424 215.894 165.961 216.709 166.236 217.635C166.512 218.56 166.508 219.536 166.226 220.384C162.943 231.156 159.973 241.674 157.091 252.485C152.551 269.283 148.559 286.395 143.785 302.626C139.995 315.618 135.152 328.128 130.835 340.878C130.123 342.318 129.708 343.964 129.618 345.697C129.529 347.43 129.766 349.209 130.315 350.906C130.511 351.564 129.808 353.127 129.142 353.724C119.356 362.927 109.407 372.019 99.6424 381.296C98.0105 382.988 96.6655 385.031 95.6646 387.337C95.3349 387.86 95.1412 388.495 95.104 389.176C95.0667 389.857 95.1873 390.557 95.453 391.204C95.7186 391.851 96.1195 392.42 96.6133 392.85C97.1071 393.281 97.6754 393.558 98.2582 393.651C99.6558 394.133 101.09 394.275 102.471 394.069C110.906 392.753 119.335 391.199 127.791 389.956C136.248 388.712 145.453 387.803 154.338 386.91C154.974 386.967 155.608 387.192 156.193 387.57C156.777 387.947 157.296 388.467 157.713 389.09C159.854 393.23 161.561 397.658 163.643 401.816C164.078 403.279 166.065 405.156 166.862 404.998C168.294 404.441 169.442 403.249 170.084 401.65C170.614 400.32 170.655 398.734 170.198 397.237C168.194 390.508 165.752 383.83 163.093 377.297C162.608 376.563 161.987 375.966 161.288 375.562C160.589 375.158 159.835 374.959 159.095 374.984C147.7 376.385 136.414 378.152 125.047 379.864C121.198 380.453 117.393 381.187 113.506 381.867C113.944 380.657 114.642 379.629 115.536 378.874L147.678 348.842C148.591 348.062 149.626 347.485 150.74 347.135C161.595 343.266 172.662 339.892 183.365 335.512C199.541 329.024 215.439 321.823 231.507 314.97C235.068 313.075 238.935 311.924 242.953 311.562C248.943 312.123 254.94 313.24 260.887 314.903C267.85 316.492 274.988 318.667 282.331 320.224L280.398 323.108C276.35 328.692 272.257 334.131 268.371 339.826C264.485 345.521 259.668 352.449 255.794 359.494C255.29 359.967 254.934 360.624 254.771 361.382C254.608 362.139 254.646 362.963 254.88 363.748C255.113 364.532 255.532 365.243 256.083 365.788C256.633 366.333 257.291 366.688 257.972 366.808C264.241 368.684 270.559 370.068 276.834 371.305C277.799 371.496 278.838 369.753 279.878 368.886C278.993 367.876 278.275 366.338 277.304 365.91C272.976 364.014 268.615 362.446 263.906 360.583C264.945 358.84 265.962 357.025 267.164 355.393C272.572 348.05 278.104 340.909 283.409 333.438C286.632 329.027 289.568 324.322 292.197 319.357C294.453 314.943 292.877 311.829 288.343 310.551C274.089 306.268 259.677 303.548 245.296 302.425C244.125 302.446 242.936 302.109 241.841 301.445C240.746 300.782 239.782 299.814 239.04 298.634C233.424 290.672 227.853 282.855 222.02 275.037C209.702 255.903 196.412 237.622 182.237 220.316C181.95 219.94 181.73 219.503 181.591 219.035C181.451 218.568 181.397 218.082 181.431 217.61C183.562 205.284 184.384 192.527 183.88 179.618C183.966 155.706 183.655 131.115 183.491 106.8L183.416 89.5442L241.073 91.8081C241.015 92.59 240.92 93.3626 240.788 94.1222C237.737 105.965 234.751 117.736 231.83 129.434C231.377 130.649 230.546 131.576 229.491 132.041C225.85 133.762 221.915 134.934 218.317 136.801C209.881 140.165 202.104 145.168 195.276 151.622C193.921 153.055 193.074 155.052 192.876 157.284C192.679 159.515 193.142 161.845 194.19 163.889C200.99 178.665 207.476 193.693 214.649 208.199C222.535 224.005 230.973 239.488 239.352 254.988C239.935 256.013 240.679 256.905 241.537 257.609C242.395 258.314 243.347 258.814 244.334 259.079C254.992 260.567 265.318 257.493 273.427 250.418C274.838 249.114 275.697 247.143 275.817 244.929C275.864 238.546 275.569 232.104 275.073 225.643C273.153 197.392 270.458 169.371 268.24 141.208C268.353 139.486 268.132 137.712 267.595 136.019C267.057 134.325 266.216 132.754 265.134 131.424C264.052 130.094 262.757 129.038 261.345 128.334C259.933 127.631 258.441 127.299 256.979 127.362ZM48.0377 306.924C45.5965 301.122 43.2907 295.12 40.8873 289.227L41.3643 289.085C46.5188 297.025 51.6951 305.039 56.9093 312.962C55.1823 313.208 53.37 312.746 51.7619 311.652C50.1539 310.557 48.8427 308.893 48.0377 306.924ZM67.907 305.866C67.7661 308.14 67.5262 310.39 67.1884 312.609C66.8292 315.981 66.7696 315.998 63.2993 315.678C64.1371 308.899 65.344 302.489 65.7862 295.908C66.2285 289.327 65.9278 282.648 65.9366 276.356C67.8511 286.185 68.5156 296.136 67.907 305.866ZM73.3166 318.588L106.069 304.777C95.9999 313.03 86.6782 320.741 73.3166 318.588ZM76.4475 283.976L76.984 283.816C83.699 290.894 90.414 297.972 97.1669 304.959C95.4447 306.586 93.8236 306.591 91.6514 303.655C86.7639 296.829 81.6653 290.385 76.4475 283.976ZM82.4588 324.227L108.612 313.973C101.608 321.106 92.3503 324.655 82.5724 323.954L82.4588 324.227ZM104.457 298.489C104.431 299.93 103.002 301.231 102.233 302.575L101.17 301.617C101.637 287.687 100.393 273.523 97.4766 259.562C101.576 272.135 103.973 285.193 104.57 298.216L104.457 298.489ZM119.098 282.267L107.668 258.041C113.388 264.639 117.944 272.5 121.01 281.061L119.098 282.267ZM121.161 257.368L116.567 241.935C118.292 243.946 119.639 246.359 120.498 248.98C121.357 251.6 121.705 254.356 121.513 257.024L121.161 257.368ZM114.269 228.765C103.345 238.902 91.4327 247.545 78.7224 254.555C64.4086 262.795 48.6624 267.725 32.2376 269.109C25.4946 269.654 18.5792 268.631 11.8702 266.096C10.7861 265.466 9.76361 264.672 8.83124 263.736C14.9967 264.608 21.098 266.135 27.1053 266.258C40.9485 266.47 54.3607 263.29 66.5101 256.916C79.5633 250.403 92.0675 242.7 104.572 234.996C108.375 232.153 111.92 228.886 115.165 225.234L115.995 225.624C115.61 226.611 115.151 227.547 114.621 228.422L114.269 228.765ZM76.9744 234.294C78.1662 233.286 78.9552 231.752 79.1927 229.98C79.4303 228.208 79.1001 226.321 78.2643 224.674C77.3787 223.115 76.0862 221.922 74.6188 221.308C73.1513 220.694 71.6052 220.7 70.2579 221.324C67.6347 222.105 64.9519 222.904 61.7326 223.862L54.8087 200.604C68.3097 194.617 83.3934 193.465 98.341 197.279C101.456 198.591 104.454 200.376 107.255 202.587C109.173 204.111 110.766 206.176 111.866 208.567C112.965 210.957 113.532 213.585 113.506 216.173C113.458 217.365 113.205 218.506 112.761 219.528C112.318 220.549 111.694 221.429 110.927 222.116C105.541 227.35 99.8252 232.111 93.8167 236.366C79.1545 246.283 63.2288 253.701 46.4516 258.429C38.2842 260.707 29.709 261.35 21.0586 260.335C17.808 259.884 14.5806 258.829 11.4964 257.21C10.3007 256.744 9.17807 255.977 8.20978 254.967C7.24148 253.957 6.45182 252.727 5.898 251.368C5.34418 250.008 5.04009 248.553 5.00775 247.107C4.9754 245.661 5.21561 244.261 5.71099 243.008C7.40995 237.709 9.78015 232.82 12.7475 228.492C20.0807 218.743 29.3614 211.328 39.9063 206.792L45.6068 204.139C46.3253 206.553 47.3362 208.641 48.1087 210.799C49.7852 216.431 51.9983 221.903 53.6748 227.535C53.9796 228.559 53.3798 230.25 52.7629 231.23C51.3881 233.152 49.5031 234.669 48.291 236.702C47.7137 237.47 47.3567 238.447 47.2633 239.514C47.1698 240.581 47.344 241.692 47.7646 242.712C48.1853 243.733 48.8343 244.62 49.6332 245.265C50.4321 245.91 51.3465 246.286 52.2657 246.347C62.1495 246.475 71.2497 241.995 77.6245 233.861L76.9744 234.294ZM235.791 302.547C204.314 318.609 171.767 332.127 138.352 343.02L144.847 325.162L155.089 334.056L161.558 316.763L167.022 320.073C176.174 325.311 176.949 325.08 179.783 314.762C180.302 313.015 180.717 311.139 181.268 309.065C183.861 310.363 186.356 311.77 188.928 312.995C190.399 313.635 191.897 314.147 193.408 314.528C198.647 315.994 198.707 315.976 200.316 310.481C201.374 307.06 202.232 303.62 203.264 299.889C208.108 302.428 213.012 304.949 218.518 307.53L221.969 291.215L235.791 302.547ZM220.158 281.643C217.957 286.677 150.579 316.29 146.423 314.103L220.158 281.643ZM175.907 112.72C175.768 113.323 175.515 113.867 175.166 114.314C174.817 114.762 174.381 115.102 173.888 115.312C165.938 118.474 157.988 121.637 149.892 124.525C137.21 129.017 124.42 133.143 111.738 137.635C108.042 138.735 104.732 140.915 101.182 142.29C100.665 142.489 100.107 142.559 99.5419 142.494C98.9767 142.43 98.4154 142.234 97.8908 141.916C93.5931 138.816 89.4904 135.499 84.7584 131.812L105.256 135.265L105.914 118.508C111.929 119.743 115.195 126.573 120.874 128.864L122.351 112.022L137.772 122.401L140.651 104.823C145.796 109.024 150.593 112.93 155.613 116.93L160.499 99.551L170.533 111.454L175.447 95.2604L175.974 95.5019C176.013 101.303 176.09 107.012 175.907 112.72ZM268.814 246.695C262.725 251.302 255.651 254.035 248.151 254.678C243.548 254.695 243.081 254.435 241.144 248.801C252 248.51 262.333 245.051 271.245 238.726C271.775 240.289 271.821 241.966 271.373 243.436C270.924 244.906 270.013 246.066 268.814 246.695ZM261.996 157.08C259.336 158.827 259.431 161.108 260.351 164.417C263.334 174.437 265.602 184.671 268.108 194.833C268.499 196.387 268.551 197.991 268.26 199.485C263.458 187.061 261.062 173.999 257.208 161.053L245.392 168.233C250.822 180.153 256.296 192.218 261.808 204.193C264.129 209.155 266.726 213.955 268.928 218.953C269.793 221.103 270.457 223.336 270.909 225.609L270.134 225.84C261.275 206.979 252.437 188.192 243.365 168.837C243.157 169.616 243.076 170.45 243.124 171.297C247.288 189.645 251.472 207.986 255.675 226.322C256.72 229.833 257.852 233.636 258.095 237.067C258.378 238.018 257.225 239.158 256.749 240.175L255.452 239.526C250.578 216.613 245.764 193.681 240.868 170.695L224.175 175.664C233.548 197.557 242.73 219.028 251.994 240.555C250.435 242.294 249.61 241.265 248.805 239.435C245.912 232.334 242.748 224.756 239.649 217.398C234.011 204.346 228.373 191.294 222.638 178.351C222.29 177.181 220.695 176.62 219.735 175.792L218.993 176.57C220.53 188.056 222.007 199.559 223.566 211.118L222.553 211.42C219.744 200.021 217.758 188.463 216.618 176.879C206.089 176.828 204.983 176.6 201.981 173.274C213.575 174.78 225.017 173.223 235.476 168.717C246.078 164.52 255.948 158.472 264.787 150.755L265.796 151.968C264.794 153.935 263.511 155.661 261.996 157.08ZM260.281 145.647C255.973 149.61 251.279 152.982 246.272 155.71C235.911 160.148 225.148 163.67 214.297 166.9C210.634 167.54 206.84 167.46 203.063 166.662C199.549 166.195 198.103 162.644 196.922 159.333C195.742 156.022 197.887 154.507 199.643 153.427C207.141 148.966 214.705 144.724 222.29 140.555C224.165 139.627 226.098 138.839 228.078 138.195C228.083 140.287 227.525 142.252 226.483 143.807C225.441 145.362 223.97 146.427 222.281 146.847C219.762 147.662 217.41 148.954 215.308 150.675C214.209 151.56 213.046 153.976 213.475 155.202C213.852 156.107 214.403 156.911 215.078 157.544C215.754 158.176 216.532 158.617 217.345 158.827C220.873 158.981 224.338 158.487 227.618 157.361C230.736 155.953 233.672 154.117 236.373 151.889C240.506 148.986 240.417 146.943 236.379 142.969C238.221 133.025 236.33 134.305 246.408 133.057C249.712 132.717 253.089 132.916 256.45 133.65C258.402 134.104 261.174 135.349 261.994 137.016C262.608 138.564 262.768 140.259 262.447 141.808C262.127 143.357 261.345 144.663 260.237 145.501L260.281 145.647Z" fill="#7B3F00" fill-opacity="0.5"/>
</svg>
