<svg width="37" height="31" viewBox="0 0 37 31" fill="none" xmlns="http://www.w3.org/2000/svg">
<path d="M32.7758 8.15615C32.7758 8.51123 32.7758 8.79529 32.7758 9.15037C32.7758 19.0215 25.3192 30.313 11.6132 30.313C7.35226 30.313 3.4464 29.1057 0.179688 26.9753C0.747812 27.0463 1.31594 27.1173 1.95508 27.1173C5.43484 27.1173 8.63054 25.91 11.1871 23.9216C7.92038 23.8506 5.15078 21.7201 4.22757 18.7375C4.72468 18.8085 5.15078 18.8795 5.64789 18.8795C6.28703 18.8795 6.99718 18.7375 7.56531 18.5954C4.15656 17.8853 1.6 14.9026 1.6 11.2808V11.2098C2.59422 11.7779 3.80148 12.062 5.00875 12.133C2.94929 10.7837 1.67101 8.51123 1.67101 5.95467C1.67101 4.53436 2.02609 3.25608 2.66523 2.19085C6.35804 6.66483 11.8973 9.64748 18.0756 10.0026C17.9336 9.43443 17.8626 8.86631 17.8626 8.29818C17.8626 4.17928 21.2003 0.84155 25.3192 0.84155C27.4497 0.84155 29.3671 1.69374 30.7874 3.18506C32.4208 2.82999 34.0541 2.19085 35.4744 1.33866C34.9063 3.11405 33.77 4.53436 32.2077 5.45756C33.699 5.31553 35.1904 4.88944 36.4686 4.32131C35.4744 5.81264 34.1961 7.09092 32.7758 8.15615Z" fill="#515151"/>
</svg>
